<?xml version="1.0" standalone="no"?>
<!DOCTYPE svg PUBLIC "-//W3C//DTD SVG 20010904//EN"
 "http://www.w3.org/TR/2001/REC-SVG-20010904/DTD/svg10.dtd">
<svg version="1.0" xmlns="http://www.w3.org/2000/svg"
 width="512.000000pt" height="512.000000pt" viewBox="0 0 512.000000 512.000000"
 preserveAspectRatio="xMidYMid meet">
<metadata>
Created by potrace 1.11, written by Peter Selinger 2001-2013
</metadata>
<g transform="translate(0.000000,512.000000) scale(0.100000,-0.100000)"
fill="#000000" stroke="none">
<path d="M457 4259 c-94 -22 -188 -104 -223 -194 -18 -48 -19 -95 -19 -1511
l0 -1461 35 -69 c25 -49 49 -79 84 -105 99 -75 -89 -70 2246 -67 l2095 3 50
24 c63 32 124 92 155 156 l25 50 0 1465 c0 1423 -1 1466 -19 1515 -26 65 -103
147 -169 176 l-52 24 -2085 2 c-1195 0 -2101 -3 -2123 -8z m2979 -1269 c136
-67 204 -200 204 -400 0 -211 -80 -355 -229 -411 -85 -31 -215 -25 -294 15
-132 67 -197 197 -197 396 0 233 98 385 277 430 66 16 171 3 239 -30z m-2446
19 c128 -21 226 -95 282 -215 54 -115 50 -312 -9 -427 -33 -67 -103 -133 -171
-165 -54 -25 -67 -27 -244 -30 l-188 -4 0 420 c0 230 3 422 7 425 10 11 251 8
323 -4z m1140 -8 c5 -11 53 -142 106 -293 53 -150 100 -279 104 -287 8 -14 13
-1 145 377 l78 222 114 0 113 0 0 -425 0 -425 -87 0 -86 0 6 308 5 307 -111
-307 -111 -308 -61 0 -61 0 -111 308 -111 307 5 -307 6 -308 -86 0 -87 0 0
425 0 425 110 0 c98 0 110 -2 120 -19z m1978 -258 l167 -273 5 273 5 272 85 0
85 0 3 -423 2 -423 -91 3 -92 3 -166 272 -166 272 -3 -274 -2 -275 -85 0 -85
0 0 425 0 426 86 -3 86 -3 166 -272z m-2358 -213 l0 -70 -160 0 -160 0 0 70 0
70 160 0 160 0 0 -70z"/>
<path d="M3190 2858 c-20 -13 -46 -45 -60 -73 -22 -44 -25 -66 -28 -172 -4
-131 10 -207 47 -250 81 -96 223 -80 280 32 24 46 26 59 26 195 0 132 -2 149
-23 192 -33 66 -72 91 -147 96 -50 3 -66 0 -95 -20z"/>
<path d="M840 2590 l0 -280 68 0 c112 0 185 51 212 149 13 48 13 211 -1 265
-13 54 -62 114 -105 132 -19 8 -65 14 -104 14 l-70 0 0 -280z"/>
</g>
</svg>
